<?xml version="1.0" standalone="no"?>
<svg version="1.0" xmlns="http://www.w3.org/2000/svg"
 width="256pt" height="256pt" viewBox="0 0 256 256">

<g transform="translate(0.000000,256.000000) scale(0.100000,-0.100000)"
fill="#ffffff" stroke="none">
<path d="M2413 2098 c-78 -134 -194 -333 -258 -443 -64 -110 -125 -205 -135
-212 -20 -14 -71 -98 -224 -368 -109 -191 -181 -275 -256 -295 -44 -12 -173
-2 -315 24 -215 40 -341 50 -585 51 -197 0 -262 -4 -333 -18 -230 -47 -284
-97 -252 -234 28 -119 105 -242 227 -359 121 -116 192 -158 338 -198 124 -34
299 -36 479 -5 311 53 469 172 572 434 17 44 38 96 47 115 18 38 207 381 338
612 46 80 84 156 84 168 0 20 39 92 140 260 15 25 53 90 85 145 32 55 79 136
105 180 96 164 91 148 88 273 l-3 113 -142 -243z"/>
</g>
</svg>
