<?xml version="1.0" standalone="no"?>
<svg version="1.0" xmlns="http://www.w3.org/2000/svg"
 width="256.000000pt" height="256.000000pt" viewBox="0 0 256.000000 256.000000"
 preserveAspectRatio="xMidYMid meet">

<g transform="translate(0.000000,256.000000) scale(0.100000,-0.100000)"
fill="#ffffff" stroke="none">
<path d="M2526 1799 c-16 -24 -61 -87 -101 -139 -39 -52 -130 -176 -200 -275
-152 -212 -180 -248 -224 -295 -44 -45 -176 -216 -276 -355 -181 -252 -213
-292 -243 -303 -24 -8 -36 -7 -60 8 -17 11 -36 29 -42 40 -23 42 -486 332
-739 462 -182 93 -249 104 -342 57 -82 -41 -187 -217 -214 -356 -49 -255 18
-379 242 -449 95 -29 404 -89 533 -103 52 -5 160 -17 240 -26 171 -20 233 -16
319 19 125 51 191 118 416 426 188 256 321 456 317 475 -1 6 24 44 55 85 56
74 111 151 271 373 l83 116 -3 142 -3 143 -29 -45z"/>
</g>
</svg>
