<?xml version="1.0" standalone="no"?>
<svg version="1.0" xmlns="http://www.w3.org/2000/svg"
 width="256.000000pt" height="256.000000pt" viewBox="0 0 256.000000 256.000000"
 preserveAspectRatio="xMidYMid meet">

<g transform="translate(0.000000,256.000000) scale(0.100000,-0.100000)"
fill="#ffffff" stroke="none">
<path d="M1615 2548 c-6 -18 -56 -209 -61 -232 -2 -10 -14 -58 -28 -105 -13
-47 -27 -99 -31 -116 -5 -16 -9 -34 -11 -40 -2 -5 -12 -44 -23 -85 -11 -41
-30 -115 -44 -165 -52 -192 -89 -331 -92 -348 -2 -9 -16 -60 -31 -111 -24 -86
-29 -94 -53 -99 -26 -5 -30 -14 -54 -105 -25 -93 -27 -112 -27 -323 l0 -225
-28 -27 -28 -27 -513 0 -512 0 -26 -26 c-24 -24 -25 -30 -21 -102 6 -107 47
-190 130 -268 35 -31 87 -68 117 -82 54 -25 58 -25 313 -24 142 0 302 5 355
11 273 30 331 38 503 66 117 20 249 61 298 93 68 44 93 163 49 234 -48 79 -98
98 -261 98 -189 0 -196 9 -196 266 0 157 3 188 26 281 l26 104 -21 23 c-20 21
-20 25 -7 67 8 24 31 107 51 184 42 159 71 269 116 435 17 63 42 156 55 205
13 50 31 113 39 140 9 28 18 62 20 75 3 14 18 73 34 133 l29 107 -44 0 c-27 0
-46 -5 -49 -12z"/>
</g>
</svg>
