<?xml version="1.0" encoding="UTF-8" standalone="no"?>
<svg version="1.0" xmlns="http://www.w3.org/2000/svg"
 width="256.000000pt" height="256.000000pt" viewBox="0 0 256.000000 256.000000"
 preserveAspectRatio="xMidYMid meet">
  <g
     transform="translate(0,256) scale(0.100000,-0.100000)"
     fill="#ffffff"
     stroke="none"
     id="g4">
    <path
       d="m 2490,2508 c -12,-29 -33,-75 -46,-103 -26,-57 -279,-614 -299,-660 -72,-164 -94,-203 -111,-202 -20,2 -6,27 -345,-640 -101,-200 -188,-363 -192,-363 -5,0 -102,46 -215,103 C 984,791 778,877 590,930 395,985 305,981 230,914 188,876 111,735 64,610 38,542 36,523 35,400 35,274 37,261 60,216 103,132 183,90 390,44 450,31 520,27 735,27 c 287,0 409,11 645,58 123,24 172,43 202,79 46,54 204,360 339,659 28,62 59,130 69,152 10,22 44,99 75,170 32,72 75,170 97,219 33,75 38,93 28,111 -10,18 -2,40 51,151 34,71 120,250 190,398 l 129,269 v 134 133 h -24 c -19,0 -28,-10 -46,-52 z M 766.86758,678.85389 c 0,-19 -22.94064,-8.79453 -280.94064,-11.79453 -225,-2 -256.79452,-7.47031 -267.79452,4.52969 -27,33 -5.73516,123.77624 269.26484,121.77624 264,-3 279.47032,-95.5114 279.47032,-114.5114 z M 1140.3206,427.49491 c -21,-13 -910.11119,-15.55642 -917.85301,1.11883 -29.13242,62.74886 -40.35434,121.83839 489.64566,121.83839 401.19345,0.064 460.84505,-99.15007 428.20735,-122.95722 z M 1342,183.17809 c -14,-14 -1108.13242,-19.60274 -1122.13242,-5.60274 -6,6 -107.8493,141.99541 593.62547,138.65751 C 1155.335,317.01426 1393.1259,271.21004 1342,183.17809 Z" />
  </g>
</svg>
